<mxfile host="app.diagrams.net" modified="2022-11-06T13:38:29.283Z" agent="5.0 (Windows NT 10.0; Win64; x64) AppleWebKit/537.36 (KHTML, like Gecko) Chrome/107.0.0.0 Safari/537.36" etag="6UDSQIeegUKRMUNSSRto" version="20.5.2" type="github">
  <diagram id="7EV94FmopAh-1TyWdTBT" name="Strona-1">
    <mxGraphModel dx="1422" dy="772" grid="1" gridSize="10" guides="1" tooltips="1" connect="1" arrows="1" fold="1" page="1" pageScale="1" pageWidth="827" pageHeight="1169" math="0" shadow="0">
      <root>
        <mxCell id="0" />
        <mxCell id="1" parent="0" />
        <mxCell id="FKsRl2tMhpfpN7Qq3ms3-1" value="" style="rounded=0;whiteSpace=wrap;html=1;" vertex="1" parent="1">
          <mxGeometry x="190" y="80" width="120" height="60" as="geometry" />
        </mxCell>
        <mxCell id="FKsRl2tMhpfpN7Qq3ms3-2" value="" style="shape=flexArrow;endArrow=classic;startArrow=classic;html=1;rounded=0;" edge="1" parent="1" target="FKsRl2tMhpfpN7Qq3ms3-3">
          <mxGeometry width="100" height="100" relative="1" as="geometry">
            <mxPoint x="249.5" y="140" as="sourcePoint" />
            <mxPoint x="249.5" y="-30" as="targetPoint" />
          </mxGeometry>
        </mxCell>
        <mxCell id="FKsRl2tMhpfpN7Qq3ms3-3" value="" style="shape=xor;whiteSpace=wrap;html=1;rotation=90;" vertex="1" parent="1">
          <mxGeometry x="240" y="300" width="60" height="80" as="geometry" />
        </mxCell>
      </root>
    </mxGraphModel>
  </diagram>
</mxfile>
